Coda-FF.ufo
<glyph name="numbersign" format="1">
  <advance width="1614"/>
  <unicode hex="0023"/>
  <outline>
    <contour>
      <point x="680" y="963" type="line"/>
      <point x="611" y="561" type="line"/>
      <point x="936" y="561" type="line"/>
      <point x="1004" y="963" type="line"/>
    </contour>
    <contour>
      <point x="1113" y="561" type="line"/>
      <point x="1390" y="561" type="line"/>
      <point x="1367" y="406" type="line"/>
      <point x="1088" y="406" type="line"/>
      <point x="1018" y="0" type="line"/>
      <point x="842" y="0" type="line"/>
      <point x="912" y="406" type="line"/>
      <point x="584" y="406" type="line"/>
      <point x="512" y="0" type="line"/>
      <point x="335" y="0" type="line"/>
      <point x="404" y="406" type="line"/>
      <point x="129" y="406" type="line"/>
      <point x="156" y="561" type="line"/>
      <point x="430" y="561" type="line"/>
      <point x="497" y="963" type="line"/>
      <point x="227" y="963" type="line"/>
      <point x="254" y="1131" type="line"/>
      <point x="526" y="1131" type="line"/>
      <point x="590" y="1490" type="line"/>
      <point x="772" y="1490" type="line"/>
      <point x="709" y="1131" type="line"/>
      <point x="1031" y="1131" type="line"/>
      <point x="1093" y="1490" type="line"/>
      <point x="1269" y="1490" type="line"/>
      <point x="1208" y="1131" type="line"/>
      <point x="1481" y="1131" type="line"/>
      <point x="1458" y="963" type="line"/>
      <point x="1180" y="963" type="line"/>
    </contour>
  </outline>
</glyph>
<glyph name="ampersand" format="1">
  <advance width="1480"/>
  <unicode hex="0026"/>
  <outline>
    <contour>
      <point x="1030" y="236" type="curve" smooth="yes"/>
      <point x="1030" y="728" type="line"/>
      <point x="493" y="728" type="line" smooth="yes"/>
      <point x="345" y="728"/>
      <point x="342" y="607"/>
      <point x="342" y="362" type="curve" smooth="yes"/>
      <point x="342" y="186"/>
      <point x="351" y="138"/>
      <point x="676" y="138" type="curve" smooth="yes"/>
      <point x="940" y="138"/>
      <point x="1030" y="168"/>
    </contour>
    <contour>
      <point x="1213" y="250" type="curve" smooth="yes"/>
      <point x="1213" y="-9"/>
      <point x="929" y="-23"/>
      <point x="640" y="-23" type="curve" smooth="yes"/>
      <point x="276" y="-23"/>
      <point x="146" y="47"/>
      <point x="146" y="402" type="curve" smooth="yes"/>
      <point x="146" y="644"/>
      <point x="222" y="797"/>
      <point x="360" y="825" type="curve"/>
      <point x="258" y="857"/>
      <point x="209" y="972"/>
      <point x="209" y="1183" type="curve" smooth="yes"/>
      <point x="209" y="1515"/>
      <point x="426" y="1522"/>
      <point x="682" y="1522" type="curve" smooth="yes"/>
      <point x="1016" y="1522"/>
      <point x="1171" y="1508"/>
      <point x="1188" y="1322" type="curve" smooth="yes"/>
      <point x="1191" y="1284"/>
      <point x="1195" y="1246"/>
      <point x="1195" y="1208" type="curve"/>
      <point x="1043" y="1183" type="line"/>
      <point x="1034" y="1347"/>
      <point x="969" y="1357"/>
      <point x="812" y="1357" type="curve" smooth="yes"/>
      <point x="741" y="1357" type="line" smooth="yes"/>
      <point x="416" y="1357"/>
      <point x="406" y="1355"/>
      <point x="406" y="1089" type="curve" smooth="yes"/>
      <point x="406" y="888"/>
      <point x="459" y="853"/>
      <point x="549" y="853" type="curve" smooth="yes"/>
      <point x="1030" y="853" type="line"/>
      <point x="1030" y="962" type="line"/>
      <point x="1213" y="962" type="line"/>
      <point x="1213" y="853" type="line"/>
      <point x="1346" y="853" type="line"/>
      <point x="1346" y="728" type="line"/>
      <point x="1212" y="727" type="line"/>
      <point x="1212" y="727"/>
      <point x="1213" y="359"/>
    </contour>
  </outline>
</glyph>
<glyph name="hyphen" format="1">
  <advance width="851"/>
  <unicode hex="002D"/>
  <outline>
    <contour>
      <point x="718" y="677" type="line"/>
      <point x="718" y="538" type="line"/>
      <point x="131" y="538" type="line"/>
      <point x="131" y="677" type="line"/>
    </contour>
  </outline>
</glyph>
<glyph name="slash" format="1">
  <advance width="770"/>
  <unicode hex="002F"/>
  <outline>
    <contour>
      <point x="113" y="-26" type="line"/>
      <point x="480" y="1516" type="line"/>
      <point x="658" y="1516" type="line"/>
      <point x="292" y="-26" type="line"/>
    </contour>
  </outline>
</glyph>
<glyph name="one" format="1">
  <advance width="658"/>
  <unicode hex="0031"/>
  <outline>
    <contour>
      <point x="342" y="1482" type="curve"/>
      <point x="497" y="1482" type="line"/>
      <point x="497" y="0" type="line"/>
      <point x="310" y="0" type="line"/>
      <point x="310" y="1244" type="line"/>
      <point x="125" y="1244" type="line"/>
      <point x="125" y="1336" type="line"/>
      <point x="218.333" y="1354"/>
      <point x="290.667" y="1402.67"/>
    </contour>
  </outline>
</glyph>
<glyph name="colon" format="1">
  <advance width="572"/>
  <unicode hex="003A"/>
  <outline>
    <contour>
      <point x="147" y="1079" type="curve" smooth="yes"/>
      <point x="147" y="1182"/>
      <point x="216" y="1232"/>
      <point x="286" y="1232" type="curve" smooth="yes"/>
      <point x="356" y="1232"/>
      <point x="427" y="1180"/>
      <point x="427" y="1079" type="curve" smooth="yes"/>
      <point x="427" y="976"/>
      <point x="358" y="925"/>
      <point x="288" y="925" type="curve" smooth="yes"/>
      <point x="218" y="925"/>
      <point x="147" y="977"/>
    </contour>
    <contour>
      <point x="427" y="288" type="curve" smooth="yes"/>
      <point x="427" y="187"/>
      <point x="356" y="136"/>
      <point x="286" y="136" type="curve" smooth="yes"/>
      <point x="216" y="136"/>
      <point x="147" y="186"/>
      <point x="147" y="288" type="curve" smooth="yes"/>
      <point x="147" y="391"/>
      <point x="216" y="441"/>
      <point x="285" y="441" type="curve" smooth="yes"/>
      <point x="356" y="441"/>
      <point x="427" y="389"/>
    </contour>
  </outline>
</glyph>
<glyph name="A" format="1">
  <advance width="1382"/>
  <unicode hex="0041"/>
  <outline>
    <contour>
      <point x="585" y="982" type="line"/>
      <point x="449" y="525" type="line"/>
      <point x="921" y="525" type="line"/>
      <point x="788" y="986" type="line"/>
      <point x="687" y="1347" type="line"/>
    </contour>
    <contour>
      <point x="561" y="1490" type="line"/>
      <point x="832" y="1490" type="line"/>
      <point x="1286" y="0" type="line"/>
      <point x="1080" y="0" type="line"/>
      <point x="963" y="381" type="line"/>
      <point x="406" y="381" type="line"/>
      <point x="293" y="0" type="line"/>
      <point x="98" y="0" type="line"/>
    </contour>
    <contour>
      <point x="629" y="1490" type="move" smooth="yes"/>
    </contour>
    <contour>
      <point x="1136" y="10" type="move" smooth="yes"/>
    </contour>
  </outline>
</glyph>
<glyph name="D" format="1">
  <advance width="1412"/>
  <unicode hex="0044"/>
  <outline>
    <contour>
      <point x="1067" y="620" type="curve" smooth="yes"/>
      <point x="1067" y="873" type="line" smooth="yes"/>
      <point x="1067" y="1259"/>
      <point x="1067" y="1336"/>
      <point x="574" y="1336" type="curve" smooth="yes"/>
      <point x="364" y="1336" type="line"/>
      <point x="364" y="153" type="line"/>
      <point x="604" y="153" type="line" smooth="yes"/>
      <point x="998" y="153"/>
      <point x="1067" y="168"/>
    </contour>
    <contour>
      <point x="1268" y="876" type="curve" smooth="yes"/>
      <point x="1268" y="53"/>
      <point x="1223" y="0"/>
      <point x="523" y="0" type="curve" smooth="yes"/>
      <point x="161" y="0" type="line"/>
      <point x="161" y="1490" type="line"/>
      <point x="677" y="1490" type="line" smooth="yes"/>
      <point x="1163" y="1490"/>
      <point x="1268" y="1371"/>
    </contour>
    <contour>
      <point x="703" y="1490" type="move" smooth="yes"/>
    </contour>
    <contour>
      <point x="703" y="745" type="move" smooth="yes"/>
    </contour>
  </outline>
</glyph>
<glyph name="E" format="1">
  <advance width="1111"/>
  <unicode hex="0045"/>
  <outline>
    <contour>
      <point x="364" y="153" type="line"/>
      <point x="1025" y="153" type="line"/>
      <point x="1005" y="0" type="line"/>
      <point x="161" y="0" type="line"/>
      <point x="161" y="1490" type="line"/>
      <point x="996" y="1490" type="line"/>
      <point x="1016" y="1336" type="line"/>
      <point x="364" y="1336" type="line"/>
      <point x="364" y="857" type="line"/>
      <point x="921" y="857" type="line"/>
      <point x="921" y="695" type="line"/>
      <point x="364" y="695" type="line"/>
    </contour>
    <contour>
      <point x="558" y="1490" type="move" smooth="yes"/>
    </contour>
    <contour>
      <point x="558" y="0" type="move" smooth="yes"/>
    </contour>
    <contour>
      <point x="1004" y="10" type="move" smooth="yes"/>
    </contour>
  </outline>
</glyph>
<glyph name="F" format="1">
  <advance width="1034"/>
  <unicode hex="0046"/>
  <outline>
    <contour>
      <point x="161" y="1490" type="line"/>
      <point x="959" y="1490" type="line"/>
      <point x="979" y="1336" type="line"/>
      <point x="364" y="1336" type="line"/>
      <point x="364" y="850" type="line"/>
      <point x="888" y="850" type="line"/>
      <point x="888" y="688" type="line"/>
      <point x="364" y="688" type="line"/>
      <point x="364" y="0" type="line"/>
      <point x="161" y="0" type="line"/>
    </contour>
  </outline>
</glyph>
<glyph name="H" format="1">
  <advance width="1394"/>
  <unicode hex="0048"/>
  <outline>
    <contour>
      <point x="702" y="1490" type="move" smooth="yes"/>
    </contour>
    <contour>
      <point x="702" y="745" type="move" smooth="yes"/>
    </contour>
    <contour>
      <point x="1030" y="1490" type="line"/>
      <point x="1233" y="1490" type="line"/>
      <point x="1233" y="0" type="line"/>
      <point x="1030" y="0" type="line"/>
      <point x="1030" y="684" type="line"/>
      <point x="364" y="684" type="line"/>
      <point x="364" y="0" type="line"/>
      <point x="161" y="0" type="line"/>
      <point x="161" y="1490" type="line"/>
      <point x="364" y="1490" type="line"/>
      <point x="364" y="842" type="line"/>
      <point x="1030" y="842" type="line"/>
    </contour>
  </outline>
</glyph>
<glyph name="I" format="1">
  <advance width="525"/>
  <unicode hex="0049"/>
  <outline>
    <contour>
      <point x="274" y="1490" type="move" smooth="yes"/>
    </contour>
    <contour>
      <point x="492" y="10" type="move" smooth="yes"/>
    </contour>
    <contour>
      <point x="161" y="1490" type="line"/>
      <point x="364" y="1490" type="line"/>
      <point x="364" y="0" type="line"/>
      <point x="161" y="0" type="line"/>
    </contour>
  </outline>
</glyph>
<glyph name="N" format="1">
  <advance width="1421"/>
  <unicode hex="004E"/>
  <outline>
    <contour>
      <point x="716" y="1490" type="move" smooth="yes"/>
    </contour>
    <contour>
      <point x="716" y="0" type="move" smooth="yes"/>
    </contour>
    <contour>
      <point x="1082" y="1490" type="line"/>
      <point x="1260" y="1490" type="line"/>
      <point x="1260" y="0" type="line"/>
      <point x="1049" y="0" type="line"/>
      <point x="339" y="1177" type="line"/>
      <point x="339" y="0" type="line"/>
      <point x="161" y="0" type="line"/>
      <point x="161" y="1490" type="line"/>
      <point x="366" y="1490" type="line"/>
      <point x="1082" y="297" type="line"/>
    </contour>
  </outline>
</glyph>
<glyph name="U" format="1">
  <advance width="1417"/>
  <unicode hex="0055"/>
  <outline>
    <contour>
      <point x="1069" y="435" type="curve" smooth="yes"/>
      <point x="1069" y="1490" type="line"/>
      <point x="1271" y="1490" type="line"/>
      <point x="1271" y="557" type="line" smooth="yes"/>
      <point x="1271" y="88"/>
      <point x="1150" y="-24"/>
      <point x="707" y="-24" type="curve" smooth="yes"/>
      <point x="284" y="-24"/>
      <point x="146" y="69"/>
      <point x="146" y="557" type="curve" smooth="yes"/>
      <point x="146" y="1490" type="line"/>
      <point x="349" y="1490" type="line"/>
      <point x="349" y="531" type="line" smooth="yes"/>
      <point x="349" y="177"/>
      <point x="350" y="130"/>
      <point x="708" y="130" type="curve" smooth="yes"/>
      <point x="1035" y="130"/>
      <point x="1069" y="188"/>
    </contour>
    <contour>
      <point x="703" y="1490" type="move" smooth="yes"/>
    </contour>
    <contour>
      <point x="1274" y="10" type="move" smooth="yes"/>
    </contour>
  </outline>
</glyph>
<glyph name="V" format="1">
  <advance width="1289"/>
  <unicode hex="0056"/>
  <outline>
    <contour>
      <point x="642" y="259" type="line"/>
      <point x="1013" y="1490" type="line"/>
      <point x="1233" y="1490" type="line"/>
      <point x="743" y="0" type="line"/>
      <point x="533" y="0" type="line"/>
      <point x="56" y="1490" type="line"/>
      <point x="271" y="1490" type="line"/>
    </contour>
  </outline>
</glyph>
<glyph name="W" format="1">
  <advance width="1839"/>
  <unicode hex="0057"/>
  <outline>
    <contour>
      <point x="1325" y="279" type="line"/>
      <point x="1553" y="1490" type="line"/>
      <point x="1741" y="1490" type="line"/>
      <point x="1425" y="0" type="line"/>
      <point x="1208" y="0" type="line"/>
      <point x="924" y="1173" type="line"/>
      <point x="642" y="0" type="line"/>
      <point x="426" y="0" type="line"/>
      <point x="98" y="1490" type="line"/>
      <point x="312" y="1490" type="line"/>
      <point x="546" y="279" type="line"/>
      <point x="831" y="1490" type="line"/>
      <point x="1032" y="1490" type="line"/>
    </contour>
    <contour>
      <point x="849" y="1490" type="move" smooth="yes"/>
    </contour>
  </outline>
</glyph>
<glyph name="X" format="1">
  <advance width="1244"/>
  <unicode hex="0058"/>
  <outline>
    <contour>
      <point x="1146" y="1490" type="line"/>
      <point x="739" y="766" type="line"/>
      <point x="1167" y="0" type="line"/>
      <point x="945" y="0" type="line"/>
      <point x="621" y="590" type="line"/>
      <point x="298" y="0" type="line"/>
      <point x="77" y="0" type="line"/>
      <point x="506" y="766" type="line"/>
      <point x="98" y="1490" type="line"/>
      <point x="315" y="1490" type="line"/>
      <point x="621" y="934" type="line"/>
      <point x="929" y="1490" type="line"/>
    </contour>
  </outline>
</glyph>
<glyph name="bracketleft" format="1">
  <advance width="723"/>
  <unicode hex="005B"/>
  <outline>
    <contour>
      <point x="352" y="-105" type="line"/>
      <point x="607" y="-105" type="line"/>
      <point x="607" y="-257" type="line"/>
      <point x="161" y="-257" type="line"/>
      <point x="161" y="1653" type="line"/>
      <point x="607" y="1653" type="line"/>
      <point x="607" y="1502" type="line"/>
      <point x="352" y="1502" type="line"/>
    </contour>
  </outline>
</glyph>
<glyph name="bracketright" format="1">
  <advance width="721"/>
  <unicode hex="005D"/>
  <outline>
    <contour>
      <point x="115" y="1653" type="line"/>
      <point x="560" y="1653" type="line"/>
      <point x="560" y="-257" type="line"/>
      <point x="115" y="-257" type="line"/>
      <point x="115" y="-105" type="line"/>
      <point x="369" y="-105" type="line"/>
      <point x="369" y="1502" type="line"/>
      <point x="115" y="1502" type="line"/>
    </contour>
  </outline>
</glyph>
<glyph name="underscore" format="1">
  <advance width="1078"/>
  <unicode hex="005F"/>
  <outline>
    <contour>
      <point x="956" y="-127" type="line"/>
      <point x="119" y="-127" type="line"/>
      <point x="119" y="0" type="line"/>
      <point x="956" y="0" type="line"/>
    </contour>
  </outline>
</glyph>
<glyph name="b" format="1">
  <advance width="1195"/>
  <unicode hex="0062"/>
  <outline>
    <contour>
      <point x="616" y="122" type="curve" smooth="yes"/>
      <point x="828" y="122"/>
      <point x="867" y="139"/>
      <point x="867" y="349" type="curve" smooth="yes"/>
      <point x="867" y="761" type="line" smooth="yes"/>
      <point x="867" y="950"/>
      <point x="863" y="990"/>
      <point x="615" y="990" type="curve" smooth="yes"/>
      <point x="397" y="990"/>
      <point x="358" y="968"/>
      <point x="358" y="773" type="curve" smooth="yes"/>
      <point x="358" y="269" type="line" smooth="yes"/>
      <point x="358" y="158"/>
      <point x="428" y="122"/>
    </contour>
    <contour>
      <point x="1063" y="611" type="curve" smooth="yes"/>
      <point x="1063" y="167"/>
      <point x="1045" y="-15"/>
      <point x="678" y="-15" type="curve" smooth="yes"/>
      <point x="504" y="-15"/>
      <point x="396" y="38"/>
      <point x="359" y="138" type="curve"/>
      <point x="341" y="0" type="line"/>
      <point x="161" y="0" type="line"/>
      <point x="161" y="1519" type="line"/>
      <point x="358" y="1535" type="line"/>
      <point x="358" y="976" type="line"/>
      <point x="402" y="1078"/>
      <point x="493" y="1128"/>
      <point x="662" y="1128" type="curve" smooth="yes"/>
      <point x="1029" y="1128"/>
      <point x="1063" y="932"/>
    </contour>
  </outline>
</glyph>
<glyph name="e" format="1">
  <advance width="1143"/>
  <unicode hex="0065"/>
  <outline>
    <contour>
      <point x="329" y="655" type="curve"/>
      <point x="825" y="655" type="line"/>
      <point x="824" y="735"/>
      <point x="821" y="813"/>
      <point x="815" y="889" type="curve" smooth="yes"/>
      <point x="809" y="971"/>
      <point x="755" y="991"/>
      <point x="585" y="991" type="curve" smooth="yes"/>
      <point x="491" y="991"/>
      <point x="431" y="984"/>
      <point x="404" y="975" type="curve" smooth="yes"/>
      <point x="324" y="950"/>
      <point x="332" y="776"/>
    </contour>
    <contour>
      <point x="1022" y="564" type="curve"/>
      <point x="973" y="559"/>
      <point x="922" y="550"/>
      <point x="873" y="550" type="curve" smooth="yes"/>
      <point x="328" y="550" type="line"/>
      <point x="329" y="442"/>
      <point x="330" y="336"/>
      <point x="336" y="232" type="curve" smooth="yes"/>
      <point x="341" y="142"/>
      <point x="398" y="122"/>
      <point x="598" y="122" type="curve" smooth="yes"/>
      <point x="870" y="122"/>
      <point x="824" y="206"/>
      <point x="842" y="334" type="curve"/>
      <point x="995" y="306" type="line"/>
      <point x="986" y="34"/>
      <point x="912" y="-15"/>
      <point x="615" y="-15" type="curve" smooth="yes"/>
      <point x="147" y="-15"/>
      <point x="132" y="147"/>
      <point x="132" y="534" type="curve" smooth="yes"/>
      <point x="132" y="1022"/>
      <point x="158" y="1128"/>
      <point x="586" y="1128" type="curve" smooth="yes"/>
      <point x="984" y="1128"/>
      <point x="1022" y="1030"/>
    </contour>
    <contour>
      <point x="551" y="1097" type="move" smooth="yes"/>
    </contour>
    <contour>
      <point x="551" y="0" type="move" smooth="yes"/>
    </contour>
    <contour>
      <point x="1001" y="10" type="move" smooth="yes"/>
    </contour>
  </outline>
</glyph>
<glyph name="i" format="1">
  <advance width="547"/>
  <unicode hex="0069"/>
  <outline>
    <contour>
      <point x="181" y="1348" type="line"/>
      <point x="181" y="1521" type="line"/>
      <point x="378" y="1521" type="line"/>
      <point x="378" y="1348" type="line"/>
    </contour>
    <contour>
      <point x="181" y="1097" type="line"/>
      <point x="378" y="1097" type="line"/>
      <point x="378" y="0" type="line"/>
      <point x="181" y="0" type="line"/>
    </contour>
  </outline>
</glyph>
<glyph name="k" format="1">
  <advance width="1087"/>
  <unicode hex="006B"/>
  <outline>
    <contour>
      <point x="1014" y="1097" type="line"/>
      <point x="601" y="658" type="line"/>
      <point x="1050" y="0" type="line"/>
      <point x="833" y="0" type="line"/>
      <point x="451" y="572" type="line"/>
      <point x="359" y="469" type="line"/>
      <point x="359" y="0" type="line"/>
      <point x="161" y="0" type="line"/>
      <point x="161" y="1486" type="line"/>
      <point x="359" y="1502" type="line"/>
      <point x="359" y="782" type="line" smooth="yes"/>
      <point x="359" y="732"/>
      <point x="358" y="674"/>
      <point x="358" y="625" type="curve"/>
      <point x="414" y="685"/>
      <point x="472" y="750"/>
      <point x="529" y="812" type="curve" smooth="yes"/>
      <point x="790" y="1097" type="line"/>
    </contour>
    <contour>
      <point x="538" y="0" type="move" smooth="yes"/>
    </contour>
  </outline>
</glyph>
<glyph name="l" format="1">
  <advance width="519"/>
  <unicode hex="006C"/>
  <outline>
    <contour>
      <point x="259" y="1097" type="move" smooth="yes"/>
    </contour>
    <contour>
      <point x="259" y="0" type="move" smooth="yes"/>
    </contour>
    <contour>
      <point x="498" y="1097" type="move" smooth="yes"/>
    </contour>
    <contour>
      <point x="161" y="1486" type="line"/>
      <point x="358" y="1502" type="line"/>
      <point x="358" y="0" type="line"/>
      <point x="161" y="0" type="line"/>
    </contour>
  </outline>
</glyph>
<glyph name="w" format="1">
  <advance width="1588"/>
  <unicode hex="0077"/>
  <outline>
    <contour>
      <point x="1123" y="205" type="line"/>
      <point x="1326" y="1097" type="line"/>
      <point x="1509" y="1097" type="line"/>
      <point x="1223" y="0" type="line"/>
      <point x="1041" y="0" type="line"/>
      <point x="803" y="859" type="line"/>
      <point x="575" y="0" type="line"/>
      <point x="373" y="0" type="line"/>
      <point x="85" y="1097" type="line"/>
      <point x="265" y="1097" type="line"/>
      <point x="481" y="213" type="line"/>
      <point x="711" y="1097" type="line"/>
      <point x="888" y="1097" type="line"/>
    </contour>
    <contour>
      <point x="729" y="1097" type="move" smooth="yes"/>
    </contour>
  </outline>
</glyph>
<glyph name="bar" format="1">
  <advance width="497"/>
  <unicode hex="007C"/>
  <outline>
    <contour>
      <point x="336" y="-98" type="line"/>
      <point x="161" y="-98" type="line"/>
      <point x="161" y="1716" type="line"/>
      <point x="336" y="1716" type="line"/>
    </contour>
  </outline>
</glyph>
<glyph name="exclamdown" format="1">
  <advance width="578"/>
  <unicode hex="00A1"/>
  <outline>
    <contour>
      <point x="322" y="-33" type="curve"/>
      <point x="217" y="-33"/>
      <point x="179" y="15"/>
      <point x="179" y="126" type="curve" smooth="yes"/>
      <point x="179" y="395"/>
      <point x="255" y="942"/>
      <point x="261" y="982" type="curve"/>
      <point x="273" y="991"/>
      <point x="287" y="995"/>
      <point x="303" y="995" type="curve"/>
      <point x="320" y="964"/>
      <point x="396" y="533"/>
      <point x="396" y="250" type="curve" smooth="yes"/>
      <point x="396" y="39"/>
      <point x="392" y="-17"/>
    </contour>
    <contour>
      <point x="438" y="1386" type="curve" smooth="yes"/>
      <point x="438" y="1296"/>
      <point x="380" y="1230"/>
      <point x="289" y="1230" type="curve" smooth="yes"/>
      <point x="204" y="1230"/>
      <point x="141" y="1300"/>
      <point x="141" y="1386" type="curve" smooth="yes"/>
      <point x="141" y="1471"/>
      <point x="196" y="1542"/>
      <point x="289" y="1542" type="curve" smooth="yes"/>
      <point x="373" y="1542"/>
      <point x="438" y="1474"/>
    </contour>
  </outline>
</glyph>
<glyph name="currency" format="1">
  <advance width="1178"/>
  <unicode hex="00A4"/>
  <outline>
    <contour>
      <point x="362" y="398" type="curve"/>
      <point x="212" y="218" type="line"/>
      <point x="149" y="287" type="line"/>
      <point x="288" y="457" type="line"/>
      <point x="210" y="531"/>
      <point x="171" y="633"/>
      <point x="171" y="764" type="curve" smooth="yes"/>
      <point x="171" y="894"/>
      <point x="210" y="996"/>
      <point x="288" y="1070" type="curve"/>
      <point x="150" y="1241" type="line"/>
      <point x="213" y="1311" type="line"/>
      <point x="363" y="1130" type="line"/>
      <point x="422" y="1169"/>
      <point x="497" y="1189"/>
      <point x="588" y="1189" type="curve" smooth="yes"/>
      <point x="678" y="1189"/>
      <point x="753" y="1170"/>
      <point x="812" y="1133" type="curve"/>
      <point x="964" y="1310" type="line"/>
      <point x="1028" y="1240" type="line"/>
      <point x="890" y="1071" type="line"/>
      <point x="970" y="996"/>
      <point x="1010" y="894"/>
      <point x="1010" y="765" type="curve" smooth="yes"/>
      <point x="1010" y="636"/>
      <point x="970" y="533"/>
      <point x="890" y="457" type="curve"/>
      <point x="1029" y="287" type="line"/>
      <point x="965" y="218" type="line"/>
      <point x="815" y="397" type="line"/>
      <point x="754" y="365"/>
      <point x="679" y="349"/>
      <point x="590" y="349" type="curve" smooth="yes"/>
      <point x="497" y="349"/>
      <point x="421" y="365"/>
    </contour>
    <contour>
      <point x="276" y="773" type="curve" smooth="yes"/>
      <point x="276" y="552"/>
      <point x="370" y="447"/>
      <point x="590" y="447" type="curve" smooth="yes"/>
      <point x="799" y="447"/>
      <point x="903" y="555"/>
      <point x="903" y="772" type="curve" smooth="yes"/>
      <point x="903" y="989"/>
      <point x="813" y="1098"/>
      <point x="590" y="1098" type="curve" smooth="yes"/>
      <point x="381" y="1098"/>
      <point x="276" y="990"/>
    </contour>
  </outline>
</glyph>
<glyph name="yen" format="1">
  <advance width="1319"/>
  <unicode hex="00A5"/>
  <outline>
    <contour>
      <point x="1206" y="1490" type="line"/>
      <point x="807" y="631" type="line"/>
      <point x="1079" y="631" type="line"/>
      <point x="1079" y="518" type="line"/>
      <point x="755" y="518" type="line"/>
      <point x="755" y="347" type="line"/>
      <point x="1032" y="347" type="line"/>
      <point x="1032" y="261" type="line"/>
      <point x="755" y="261" type="line"/>
      <point x="755" y="0" type="line"/>
      <point x="553" y="0" type="line"/>
      <point x="553" y="261" type="line"/>
      <point x="288" y="261" type="line"/>
      <point x="288" y="347" type="line"/>
      <point x="553" y="347" type="line"/>
      <point x="553" y="518" type="line"/>
      <point x="241" y="518" type="line"/>
      <point x="241" y="631" type="line"/>
      <point x="502" y="631" type="line"/>
      <point x="115" y="1490" type="line"/>
      <point x="336" y="1490" type="line"/>
      <point x="661" y="727" type="line"/>
      <point x="992" y="1490" type="line"/>
    </contour>
  </outline>
</glyph>
<glyph name="logicalnot" format="1">
  <advance width="1193"/>
  <unicode hex="00AC"/>
  <outline>
    <contour>
      <point x="902" y="647" type="line"/>
      <point x="127" y="647" type="line"/>
      <point x="127" y="797" type="line"/>
      <point x="1051" y="797" type="line"/>
      <point x="1051" y="262" type="line"/>
      <point x="902" y="262" type="line"/>
    </contour>
  </outline>
</glyph>
<glyph name="macron" format="1">
  <advance width="846"/>
  <unicode hex="00AF"/>
  <outline>
    <contour>
      <point x="427.5" y="1097" type="move" smooth="yes"/>
    </contour>
    <contour>
      <point x="129" y="838" type="line"/>
      <point x="726" y="838" type="line"/>
      <point x="726" y="711" type="line"/>
      <point x="129" y="711" type="line"/>
    </contour>
  </outline>
</glyph>
<glyph name="plusminus" format="1">
  <advance width="1212"/>
  <unicode hex="00B1"/>
  <outline>
    <contour>
      <point x="144" y="150" type="line"/>
      <point x="1068" y="150" type="line"/>
      <point x="1068" y="0" type="line"/>
      <point x="144" y="0" type="line"/>
    </contour>
    <contour>
      <point x="681" y="647" type="line"/>
      <point x="681" y="262" type="line"/>
      <point x="531" y="262" type="line"/>
      <point x="531" y="647" type="line"/>
      <point x="144" y="647" type="line"/>
      <point x="144" y="797" type="line"/>
      <point x="531" y="797" type="line"/>
      <point x="531" y="1186" type="line"/>
      <point x="681" y="1186" type="line"/>
      <point x="681" y="797" type="line"/>
      <point x="1068" y="797" type="line"/>
      <point x="1068" y="647" type="line"/>
    </contour>
  </outline>
</glyph>
<glyph name="uni00B3" format="1">
  <advance width="1020"/>
  <unicode hex="00B3"/>
  <outline>
    <contour>
      <point x="149" y="517" type="curve"/>
      <point x="274" y="535" type="line"/>
      <point x="285" y="390"/>
      <point x="296" y="356"/>
      <point x="498" y="356" type="curve" smooth="yes"/>
      <point x="729" y="356"/>
      <point x="729" y="388"/>
      <point x="729" y="592" type="curve" smooth="yes"/>
      <point x="729" y="806"/>
      <point x="659" y="807"/>
      <point x="433" y="807" type="curve" smooth="yes"/>
      <point x="427" y="807" type="line"/>
      <point x="421" y="918" type="line"/>
      <point x="487" y="918"/>
      <point x="517" y="918"/>
      <point x="547" y="919" type="curve" smooth="yes"/>
      <point x="719" y="924"/>
      <point x="723" y="989"/>
      <point x="723" y="1150" type="curve" smooth="yes"/>
      <point x="723" y="1178" type="line" smooth="yes"/>
      <point x="723" y="1295"/>
      <point x="696" y="1332"/>
      <point x="504" y="1332" type="curve" smooth="yes"/>
      <point x="346" y="1332"/>
      <point x="295" y="1312"/>
      <point x="290" y="1242" type="curve" smooth="yes"/>
      <point x="283" y="1156" type="line"/>
      <point x="162" y="1180" type="line"/>
      <point x="162" y="1202" type="line" smooth="yes"/>
      <point x="162" y="1376"/>
      <point x="212" y="1440"/>
      <point x="514" y="1440" type="curve" smooth="yes"/>
      <point x="757" y="1440"/>
      <point x="864" y="1352"/>
      <point x="864" y="1148" type="curve" smooth="yes"/>
      <point x="864" y="881"/>
      <point x="725" y="869"/>
      <point x="698" y="863" type="curve"/>
      <point x="732" y="856"/>
      <point x="871" y="830"/>
      <point x="871" y="589" type="curve" smooth="yes"/>
      <point x="871" y="309"/>
      <point x="731" y="247"/>
      <point x="479" y="247" type="curve" smooth="yes"/>
      <point x="269" y="247"/>
      <point x="148" y="287"/>
      <point x="148" y="468" type="curve" smooth="yes"/>
      <point x="148" y="482"/>
      <point x="148" y="498"/>
    </contour>
  </outline>
</glyph>
<glyph name="acute" format="1">
  <advance width="670"/>
  <unicode hex="00B4"/>
  <outline>
    <contour>
      <point x="350.5" y="1097" type="move" smooth="yes"/>
    </contour>
    <contour>
      <point x="405" y="1605" type="curve" smooth="yes"/>
      <point x="428.534" y="1624.36"/>
      <point x="457" y="1640"/>
      <point x="489" y="1640" type="curve" smooth="yes"/>
      <point x="555" y="1640"/>
      <point x="592" y="1591"/>
      <point x="592" y="1540" type="curve" smooth="yes"/>
      <point x="592" y="1501"/>
      <point x="570" y="1457"/>
      <point x="521" y="1436" type="curve" smooth="yes"/>
      <point x="496" y="1425"/>
      <point x="126" y="1288"/>
      <point x="126" y="1287" type="curve" smooth="yes"/>
      <point x="109" y="1308" type="line"/>
      <point x="109" y="1308"/>
      <point x="366.534" y="1573.36"/>
    </contour>
  </outline>
</glyph>
<glyph name="threequarters" format="1">
  <advance width="892"/>
  <unicode hex="00BE"/>
  <outline>
    <contour>
      <point x="257" y="220" type="curve"/>
      <point x="429" y="220" type="line"/>
      <point x="429" y="544" type="line"/>
      <point x="394" y="477.333"/>
      <point x="336.667" y="369.333"/>
    </contour>
    <contour>
      <point x="759" y="733" type="line"/>
      <point x="139" y="733" type="line"/>
      <point x="139" y="804" type="line"/>
      <point x="759" y="804" type="line"/>
    </contour>
    <contour>
      <point x="285" y="1063" type="curve"/>
      <point x="352" y="1063" type="line"/>
      <point x="352" y="1040" type="line" smooth="yes"/>
      <point x="352" y="993"/>
      <point x="357" y="979"/>
      <point x="440" y="979" type="curve" smooth="yes"/>
      <point x="534" y="979"/>
      <point x="557" y="989"/>
      <point x="557" y="1047" type="curve" smooth="yes"/>
      <point x="557" y="1184"/>
      <point x="538" y="1185"/>
      <point x="422" y="1185" type="curve" smooth="yes"/>
      <point x="417" y="1185" type="line"/>
      <point x="414" y="1238" type="line"/>
      <point x="419" y="1238"/>
      <point x="434" y="1237"/>
      <point x="441" y="1237" type="curve" smooth="yes"/>
      <point x="547" y="1237"/>
      <point x="556" y="1264"/>
      <point x="556" y="1306" type="curve" smooth="yes"/>
      <point x="556" y="1395"/>
      <point x="554" y="1416"/>
      <point x="460" y="1416" type="curve" smooth="yes"/>
      <point x="376" y="1416"/>
      <point x="351" y="1408"/>
      <point x="352" y="1377" type="curve" smooth="yes"/>
      <point x="354" y="1331" type="line"/>
      <point x="295" y="1331" type="line"/>
      <point x="295" y="1331"/>
      <point x="287" y="1357"/>
      <point x="287" y="1383" type="curve" smooth="yes"/>
      <point x="287" y="1455"/>
      <point x="329" y="1481"/>
      <point x="465" y="1481" type="curve" smooth="yes"/>
      <point x="587" y="1481"/>
      <point x="636" y="1437"/>
      <point x="636" y="1329" type="curve" smooth="yes"/>
      <point x="636" y="1222"/>
      <point x="564" y="1211"/>
      <point x="544" y="1210" type="curve"/>
      <point x="565" y="1207"/>
      <point x="636" y="1189"/>
      <point x="636" y="1068" type="curve" smooth="yes"/>
      <point x="636" y="947"/>
      <point x="571" y="915"/>
      <point x="459" y="915" type="curve" smooth="yes"/>
      <point x="341" y="915"/>
      <point x="282" y="929"/>
      <point x="282" y="1014" type="curve" smooth="yes"/>
      <point x="282" y="1022"/>
      <point x="283" y="1038"/>
    </contour>
    <contour>
      <point x="520" y="152" type="line"/>
      <point x="520" y="0" type="line"/>
      <point x="429" y="0" type="line"/>
      <point x="429" y="152" type="line"/>
      <point x="215" y="152" type="line"/>
      <point x="177" y="220" type="line"/>
      <point x="408" y="616" type="line"/>
      <point x="520" y="616" type="line"/>
      <point x="520" y="220" type="line"/>
      <point x="622" y="220" type="line"/>
      <point x="622" y="152" type="line"/>
    </contour>
  </outline>
</glyph>
<glyph name="Eth" format="1">
  <advance width="1492"/>
  <unicode hex="00D0"/>
  <outline>
    <contour>
      <point x="1141" y="620" type="curve" smooth="yes"/>
      <point x="1141" y="873" type="line" smooth="yes"/>
      <point x="1141" y="1259"/>
      <point x="1141" y="1336"/>
      <point x="648" y="1336" type="curve" smooth="yes"/>
      <point x="438" y="1336" type="line"/>
      <point x="438" y="826" type="line"/>
      <point x="706" y="826" type="line"/>
      <point x="706" y="689" type="line"/>
      <point x="438" y="689" type="line"/>
      <point x="438" y="153" type="line"/>
      <point x="678" y="153" type="line" smooth="yes"/>
      <point x="1072" y="153"/>
      <point x="1141" y="168"/>
    </contour>
    <contour>
      <point x="1342" y="876" type="curve" smooth="yes"/>
      <point x="1342" y="53"/>
      <point x="1297" y="0"/>
      <point x="597" y="0" type="curve" smooth="yes"/>
      <point x="235" y="0" type="line"/>
      <point x="235" y="689" type="line"/>
      <point x="142" y="689" type="line"/>
      <point x="142" y="826" type="line"/>
      <point x="235" y="826" type="line"/>
      <point x="235" y="1490" type="line"/>
      <point x="751" y="1490" type="line" smooth="yes"/>
      <point x="1237" y="1490"/>
      <point x="1342" y="1371"/>
    </contour>
  </outline>
</glyph>
<glyph name="Thorn" format="1">
  <advance width="1302"/>
  <unicode hex="00DE"/>
  <outline>
    <contour>
      <point x="967" y="816" type="curve" smooth="yes"/>
      <point x="967" y="832" type="line" smooth="yes"/>
      <point x="967" y="1102"/>
      <point x="925" y="1120"/>
      <point x="593" y="1120" type="curve" smooth="yes"/>
      <point x="361" y="1120" type="line"/>
      <point x="361" y="551" type="line"/>
      <point x="684" y="551" type="line" smooth="yes"/>
      <point x="963" y="551"/>
      <point x="967" y="630"/>
    </contour>
    <contour>
      <point x="1166" y="832" type="curve" smooth="yes"/>
      <point x="1166" y="439"/>
      <point x="941" y="381"/>
      <point x="726" y="381" type="curve" smooth="yes"/>
      <point x="674" y="381"/>
      <point x="624" y="383"/>
      <point x="579" y="383" type="curve" smooth="yes"/>
      <point x="361" y="383" type="line"/>
      <point x="361" y="0" type="line"/>
      <point x="161" y="0" type="line"/>
      <point x="161" y="1489" type="line"/>
      <point x="361" y="1489" type="line"/>
      <point x="361" y="1284" type="line"/>
      <point x="606" y="1284" type="line" smooth="yes"/>
      <point x="1030" y="1284"/>
      <point x="1166" y="1213"/>
    </contour>
  </outline>
</glyph>
<glyph name="ae" format="1">
  <advance width="1782"/>
  <unicode hex="00E6"/>
  <outline>
    <contour>
      <point x="857" y="1097" type="move" smooth="yes"/>
    </contour>
    <contour>
      <point x="989" y="655" type="curve"/>
      <point x="1441" y="655" type="line"/>
      <point x="1440" y="735"/>
      <point x="1437" y="813"/>
      <point x="1431" y="889" type="curve" smooth="yes"/>
      <point x="1425" y="971"/>
      <point x="1384" y="991"/>
      <point x="1245" y="991" type="curve" smooth="yes"/>
      <point x="972" y="991"/>
      <point x="995" y="909"/>
    </contour>
    <contour>
      <point x="792" y="314" type="curve" smooth="yes"/>
      <point x="792" y="485" type="line"/>
      <point x="397" y="485"/>
      <point x="320" y="443"/>
      <point x="320" y="354" type="curve" smooth="yes"/>
      <point x="320" y="341" type="line" smooth="yes"/>
      <point x="320" y="155"/>
      <point x="322" y="122"/>
      <point x="498" y="122" type="curve" smooth="yes"/>
      <point x="718" y="122"/>
      <point x="792" y="203"/>
    </contour>
    <contour>
      <point x="1489" y="550" type="curve" smooth="yes"/>
      <point x="989" y="550" type="line"/>
      <point x="989" y="399" type="line" smooth="yes"/>
      <point x="989" y="197"/>
      <point x="996" y="122"/>
      <point x="1258" y="122" type="curve" smooth="yes"/>
      <point x="1481" y="122"/>
      <point x="1444" y="206"/>
      <point x="1458" y="334" type="curve"/>
      <point x="1611" y="306" type="line"/>
      <point x="1602" y="34"/>
      <point x="1537" y="-15"/>
      <point x="1275" y="-15" type="curve" smooth="yes"/>
      <point x="1043" y="-15"/>
      <point x="925" y="33"/>
      <point x="865" y="139" type="curve"/>
      <point x="804" y="8"/>
      <point x="669" y="-15"/>
      <point x="471" y="-15" type="curve" smooth="yes"/>
      <point x="205" y="-15"/>
      <point x="138" y="86"/>
      <point x="138" y="354" type="curve" smooth="yes"/>
      <point x="138" y="577"/>
      <point x="404" y="604"/>
      <point x="792" y="604" type="curve"/>
      <point x="792" y="901" type="line" smooth="yes"/>
      <point x="792" y="970"/>
      <point x="738" y="991"/>
      <point x="581" y="991" type="curve" smooth="yes"/>
      <point x="341" y="991"/>
      <point x="360" y="964"/>
      <point x="355" y="824" type="curve"/>
      <point x="202" y="830" type="line"/>
      <point x="200" y="846"/>
      <point x="200" y="862"/>
      <point x="200" y="877" type="curve" smooth="yes"/>
      <point x="200" y="1104"/>
      <point x="359" y="1128"/>
      <point x="594" y="1128" type="curve" smooth="yes"/>
      <point x="737" y="1128"/>
      <point x="833" y="1096"/>
      <point x="894" y="1013" type="curve"/>
      <point x="960" y="1100"/>
      <point x="1068" y="1128"/>
      <point x="1246" y="1128" type="curve" smooth="yes"/>
      <point x="1604" y="1128"/>
      <point x="1638" y="1030"/>
      <point x="1638" y="564" type="curve"/>
      <point x="1589" y="559"/>
      <point x="1538" y="550"/>
    </contour>
  </outline>
</glyph>
<glyph name="divide" format="1">
  <advance width="571"/>
  <unicode hex="00F7"/>
  <outline>
    <contour>
      <point x="427" y="288" type="curve" smooth="yes"/>
      <point x="427" y="203"/>
      <point x="373" y="134"/>
      <point x="287" y="134" type="curve" smooth="yes"/>
      <point x="206" y="134"/>
      <point x="147" y="193"/>
      <point x="147" y="288" type="curve" smooth="yes"/>
      <point x="147" y="383"/>
      <point x="200" y="442"/>
      <point x="301" y="442" type="curve" smooth="yes"/>
      <point x="371" y="442"/>
      <point x="427" y="366"/>
    </contour>
    <contour>
      <point x="287" y="925" type="curve" smooth="yes"/>
      <point x="205" y="925"/>
      <point x="147" y="984"/>
      <point x="147" y="1079" type="curve" smooth="yes"/>
      <point x="147" y="1175"/>
      <point x="200" y="1233"/>
      <point x="301" y="1233" type="curve" smooth="yes"/>
      <point x="371" y="1233"/>
      <point x="427" y="1157"/>
      <point x="427" y="1079" type="curve" smooth="yes"/>
      <point x="427" y="991"/>
      <point x="375" y="925"/>
    </contour>
  </outline>
</glyph>
<glyph name="dcroat" format="1">
  <advance width="1318"/>
  <unicode hex="0111"/>
  <outline>
    <contour>
      <point x="593" y="1005" type="curve" smooth="yes"/>
      <point x="400" y="1005"/>
      <point x="341" y="1000"/>
      <point x="341" y="879" type="curve" smooth="yes"/>
      <point x="341" y="221" type="line" smooth="yes"/>
      <point x="341" y="134"/>
      <point x="384" y="114"/>
      <point x="592" y="114" type="curve" smooth="yes"/>
      <point x="792" y="114"/>
      <point x="851" y="138"/>
      <point x="851" y="246" type="curve" smooth="yes"/>
      <point x="851" y="866" type="line" smooth="yes"/>
      <point x="851" y="981"/>
      <point x="804" y="1005"/>
    </contour>
    <contour>
      <point x="146" y="371" type="curve" smooth="yes"/>
      <point x="146" y="778" type="line" smooth="yes"/>
      <point x="146" y="1030"/>
      <point x="258" y="1133"/>
      <point x="543" y="1133" type="curve" smooth="yes"/>
      <point x="727" y="1133"/>
      <point x="813" y="1089"/>
      <point x="851" y="986" type="curve"/>
      <point x="851" y="1261" type="line"/>
      <point x="594" y="1261" type="line"/>
      <point x="594" y="1364" type="line"/>
      <point x="851" y="1364" type="line"/>
      <point x="851" y="1542" type="line"/>
      <point x="1046" y="1542" type="line"/>
      <point x="1046" y="1364" type="line"/>
      <point x="1191" y="1364" type="line"/>
      <point x="1191" y="1261" type="line"/>
      <point x="1046" y="1261" type="line"/>
      <point x="1046" y="0" type="line"/>
      <point x="871" y="0" type="line"/>
      <point x="849" y="144" type="line"/>
      <point x="816" y="39"/>
      <point x="707" y="-14"/>
      <point x="523" y="-14" type="curve" smooth="yes"/>
      <point x="225" y="-14"/>
      <point x="146" y="100"/>
    </contour>
  </outline>
</glyph>
<glyph name="Hbar" format="1">
  <advance width="1512"/>
  <unicode hex="0126"/>
  <outline>
    <contour>
      <point x="1090" y="842" type="line"/>
      <point x="1090" y="1083" type="line"/>
      <point x="424" y="1083" type="line"/>
      <point x="424" y="842" type="line"/>
    </contour>
    <contour>
      <point x="1370" y="1083" type="line"/>
      <point x="1293" y="1083" type="line"/>
      <point x="1293" y="0" type="line"/>
      <point x="1090" y="0" type="line"/>
      <point x="1090" y="684" type="line"/>
      <point x="424" y="684" type="line"/>
      <point x="424" y="0" type="line"/>
      <point x="221" y="0" type="line"/>
      <point x="221" y="1083" type="line"/>
      <point x="143" y="1083" type="line"/>
      <point x="143" y="1189" type="line"/>
      <point x="221" y="1189" type="line"/>
      <point x="221" y="1490" type="line"/>
      <point x="424" y="1490" type="line"/>
      <point x="424" y="1189" type="line"/>
      <point x="1090" y="1189" type="line"/>
      <point x="1090" y="1490" type="line"/>
      <point x="1293" y="1490" type="line"/>
      <point x="1293" y="1189" type="line"/>
      <point x="1370" y="1189" type="line"/>
    </contour>
  </outline>
</glyph>
<glyph name="hbar" format="1">
  <advance width="1305"/>
  <unicode hex="0127"/>
  <outline>
    <contour>
      <point x="1154" y="756" type="curve" smooth="yes"/>
      <point x="1154" y="0" type="line"/>
      <point x="957" y="0" type="line"/>
      <point x="957" y="666" type="line" smooth="yes"/>
      <point x="957" y="733"/>
      <point x="958" y="787"/>
      <point x="958" y="830" type="curve" smooth="yes"/>
      <point x="958" y="952"/>
      <point x="930" y="990"/>
      <point x="707" y="990" type="curve" smooth="yes"/>
      <point x="607" y="990"/>
      <point x="496" y="969"/>
      <point x="490" y="896" type="curve" smooth="yes"/>
      <point x="482" y="793"/>
      <point x="476" y="684"/>
      <point x="476" y="572" type="curve" smooth="yes"/>
      <point x="476" y="0" type="line"/>
      <point x="278" y="0" type="line"/>
      <point x="278" y="1245" type="line"/>
      <point x="129" y="1245" type="line"/>
      <point x="129" y="1372" type="line"/>
      <point x="278" y="1372" type="line"/>
      <point x="278" y="1486" type="line"/>
      <point x="476" y="1502" type="line"/>
      <point x="476" y="1372" type="line"/>
      <point x="726" y="1372" type="line"/>
      <point x="726" y="1245" type="line"/>
      <point x="476" y="1245" type="line"/>
      <point x="476" y="1014" type="line"/>
      <point x="524" y="1090"/>
      <point x="625" y="1128"/>
      <point x="774" y="1128" type="curve" smooth="yes"/>
      <point x="1128" y="1128"/>
      <point x="1154" y="990"/>
    </contour>
  </outline>
</glyph>
<glyph name="dotlessi" format="1">
  <advance width="508"/>
  <unicode hex="0131"/>
  <outline>
    <contour>
      <point x="267" y="1097" type="move" smooth="yes"/>
    </contour>
    <contour>
      <point x="480" y="10" type="move" smooth="yes"/>
    </contour>
    <contour>
      <point x="156" y="1097" type="line"/>
      <point x="353" y="1097" type="line"/>
      <point x="353" y="0" type="line"/>
      <point x="156" y="0" type="line"/>
    </contour>
  </outline>
</glyph>
<glyph name="lslash" format="1">
  <advance width="785"/>
  <unicode hex="0142"/>
  <outline>
    <contour>
      <point x="483" y="945" type="line"/>
      <point x="645" y="1041" type="line"/>
      <point x="645" y="848" type="line"/>
      <point x="483" y="751" type="line"/>
      <point x="483" y="0" type="line"/>
      <point x="287" y="0" type="line"/>
      <point x="287" y="635" type="line"/>
      <point x="133" y="545" type="line"/>
      <point x="133" y="738" type="line"/>
      <point x="287" y="829" type="line"/>
      <point x="287" y="1528" type="line"/>
      <point x="483" y="1544" type="line"/>
    </contour>
  </outline>
</glyph>
<glyph name="OE" format="1">
  <advance width="2108"/>
  <unicode hex="0152"/>
  <outline>
    <contour>
      <point x="1033" y="1490" type="move" smooth="yes"/>
    </contour>
    <contour>
      <point x="1103" y="154" type="line"/>
      <point x="1103" y="1337" type="line"/>
      <point x="729" y="1337" type="line" smooth="yes"/>
      <point x="395" y="1337"/>
      <point x="364" y="1294"/>
      <point x="358" y="1097" type="curve" smooth="yes"/>
      <point x="355" y="1012"/>
      <point x="355" y="926"/>
      <point x="355" y="839" type="curve" smooth="yes"/>
      <point x="355" y="725" type="line" smooth="yes"/>
      <point x="355" y="699" type="line" smooth="yes"/>
      <point x="355" y="463"/>
      <point x="357" y="218"/>
      <point x="461" y="183" type="curve"/>
      <point x="504" y="158"/>
      <point x="613" y="154"/>
      <point x="729" y="154" type="curve" smooth="yes"/>
    </contour>
    <contour>
      <point x="1306" y="153" type="line"/>
      <point x="1967" y="153" type="line"/>
      <point x="1947" y="0" type="line"/>
      <point x="729" y="0" type="line" smooth="yes"/>
      <point x="159" y="0"/>
      <point x="151" y="158"/>
      <point x="151" y="812" type="curve" smooth="yes"/>
      <point x="151" y="1348"/>
      <point x="230" y="1490"/>
      <point x="729" y="1490" type="curve" smooth="yes"/>
      <point x="1938" y="1490" type="line"/>
      <point x="1958" y="1336" type="line"/>
      <point x="1306" y="1336" type="line"/>
      <point x="1306" y="857" type="line"/>
      <point x="1863" y="857" type="line"/>
      <point x="1863" y="695" type="line"/>
      <point x="1306" y="695" type="line"/>
    </contour>
  </outline>
</glyph>
<glyph name="florin" format="1">
  <advance width="857"/>
  <unicode hex="0192"/>
  <outline>
    <contour>
      <point x="713" y="1543" type="curve"/>
      <point x="713" y="1389" type="line"/>
      <point x="687" y="1391"/>
      <point x="661" y="1392"/>
      <point x="635" y="1392" type="curve" smooth="yes"/>
      <point x="504" y="1392"/>
      <point x="504" y="1372"/>
      <point x="504" y="1256" type="curve" smooth="yes"/>
      <point x="505" y="887" type="line"/>
      <point x="703" y="887" type="line"/>
      <point x="703" y="757" type="line"/>
      <point x="505" y="757" type="line"/>
      <point x="505" y="-56" type="line" smooth="yes"/>
      <point x="505" y="-222"/>
      <point x="478" y="-315"/>
      <point x="292" y="-319" type="curve" smooth="yes"/>
      <point x="264" y="-319"/>
      <point x="230" y="-315"/>
      <point x="140" y="-299" type="curve"/>
      <point x="140" y="-167" type="line"/>
      <point x="308" y="-167" type="line"/>
      <point x="308" y="757" type="line"/>
      <point x="146" y="757" type="line"/>
      <point x="146" y="887" type="line"/>
      <point x="308" y="887" type="line"/>
      <point x="307" y="1259" type="line" smooth="yes"/>
      <point x="306" y="1484"/>
      <point x="375" y="1561"/>
      <point x="537" y="1561" type="curve" smooth="yes"/>
      <point x="590" y="1561"/>
      <point x="650" y="1555"/>
    </contour>
  </outline>
</glyph>
<glyph name="uni0237" format="1">
  <advance width="616"/>
  <unicode hex="0237"/>
  <outline>
    <contour>
      <point x="258" y="1097" type="move" smooth="yes"/>
    </contour>
    <contour>
      <point x="263" y="-64" type="curve" smooth="yes"/>
      <point x="263" y="1097" type="line"/>
      <point x="460" y="1097" type="line"/>
      <point x="460" y="61" type="line" smooth="yes"/>
      <point x="460" y="-200"/>
      <point x="403" y="-302"/>
      <point x="205" y="-302" type="curve" smooth="yes"/>
      <point x="174" y="-302"/>
      <point x="138" y="-299"/>
      <point x="99" y="-294" type="curve"/>
      <point x="94" y="-172" type="line"/>
      <point x="175" y="-168"/>
      <point x="263" y="-188"/>
    </contour>
  </outline>
</glyph>
<glyph name="dotaccent" format="1">
  <advance width="447"/>
  <unicode hex="02D9"/>
  <outline>
    <contour>
      <point x="227" y="1097" type="move" smooth="yes"/>
    </contour>
    <contour>
      <point x="128" y="1207" type="line"/>
      <point x="128" y="1283"/>
      <point x="129" y="1359"/>
      <point x="129" y="1435" type="curve"/>
      <point x="325" y="1435" type="line"/>
      <point x="325" y="1359"/>
      <point x="326" y="1283"/>
      <point x="326" y="1207" type="curve"/>
    </contour>
  </outline>
</glyph>
<glyph name="tilde" format="1">
  <advance width="1015"/>
  <unicode hex="02DC"/>
  <outline>
    <contour>
      <point x="503.5" y="1097" type="move" smooth="yes"/>
    </contour>
    <contour>
      <point x="842" y="1097" type="line"/>
      <point x="803" y="956"/>
      <point x="718" y="912"/>
      <point x="615" y="912" type="curve" smooth="yes"/>
      <point x="513" y="912"/>
      <point x="427" y="996"/>
      <point x="340" y="996" type="curve" smooth="yes"/>
      <point x="292" y="996"/>
      <point x="244" y="979"/>
      <point x="194" y="933" type="curve"/>
      <point x="165" y="976" type="line"/>
      <point x="203" y="1096"/>
      <point x="281" y="1132"/>
      <point x="374" y="1132" type="curve" smooth="yes"/>
      <point x="498" y="1132"/>
      <point x="549" y="1064"/>
      <point x="623" y="1064" type="curve" smooth="yes"/>
      <point x="674" y="1064"/>
      <point x="731" y="1085"/>
      <point x="808" y="1147" type="curve"/>
    </contour>
  </outline>
</glyph>
<glyph name="hungarumlaut" format="1">
  <advance width="1126"/>
  <unicode hex="02DD"/>
  <outline>
    <contour>
      <point x="547" y="1097" type="move" smooth="yes"/>
    </contour>
    <contour>
      <point x="816" y="1605" type="curve" smooth="yes"/>
      <point x="839.534" y="1624.36"/>
      <point x="868" y="1640"/>
      <point x="900" y="1640" type="curve" smooth="yes"/>
      <point x="966" y="1640"/>
      <point x="1003" y="1591"/>
      <point x="1003" y="1540" type="curve" smooth="yes"/>
      <point x="1003" y="1501"/>
      <point x="981" y="1457"/>
      <point x="932" y="1436" type="curve" smooth="yes"/>
      <point x="907" y="1425"/>
      <point x="537" y="1288"/>
      <point x="537" y="1287" type="curve" smooth="yes"/>
      <point x="520" y="1308" type="line"/>
      <point x="520" y="1308"/>
      <point x="777.534" y="1573.36"/>
    </contour>
    <contour>
      <point x="387" y="1605" type="curve" smooth="yes"/>
      <point x="410.534" y="1624.36"/>
      <point x="439" y="1640"/>
      <point x="471" y="1640" type="curve" smooth="yes"/>
      <point x="537" y="1640"/>
      <point x="574" y="1591"/>
      <point x="574" y="1540" type="curve" smooth="yes"/>
      <point x="574" y="1501"/>
      <point x="552" y="1457"/>
      <point x="503" y="1436" type="curve" smooth="yes"/>
      <point x="478" y="1425"/>
      <point x="108" y="1288"/>
      <point x="108" y="1287" type="curve" smooth="yes"/>
      <point x="91" y="1308" type="line"/>
      <point x="91" y="1308"/>
      <point x="348.534" y="1573.36"/>
    </contour>
  </outline>
</glyph>
<glyph name="uni0307" format="1">
  <advance width="465"/>
  <unicode hex="0307"/>
  <outline>
    <contour>
      <point x="227" y="1097" type="move" smooth="yes"/>
    </contour>
    <contour>
      <point x="333" y="1207" type="curve"/>
      <point x="135" y="1207" type="line"/>
      <point x="135" y="1283"/>
      <point x="136" y="1359"/>
      <point x="136" y="1435" type="curve"/>
      <point x="332" y="1435" type="line"/>
      <point x="332" y="1359"/>
      <point x="333" y="1283"/>
    </contour>
  </outline>
</glyph>
<glyph name="quotesinglbase" format="1">
  <advance width="434"/>
  <unicode hex="201A"/>
  <outline>
    <contour>
      <point x="230" y="-276" type="curve"/>
      <point x="205" y="-270" type="line"/>
      <point x="205" y="-270"/>
      <point x="130" y="85"/>
      <point x="130" y="164" type="curve" smooth="yes"/>
      <point x="130" y="261"/>
      <point x="144" y="301"/>
      <point x="217" y="301" type="curve" smooth="yes"/>
      <point x="273" y="301"/>
      <point x="303" y="261"/>
      <point x="303" y="179" type="curve" smooth="yes"/>
      <point x="303" y="96"/>
      <point x="230" y="-276"/>
    </contour>
  </outline>
</glyph>
<glyph name="quotedblright" format="1">
  <advance width="1049"/>
  <unicode hex="201D"/>
  <outline>
    <contour>
      <point x="147" y="1000" type="curve"/>
      <point x="147" y="1068" type="line"/>
      <point x="233" y="1068"/>
      <point x="284" y="1163"/>
      <point x="284" y="1267" type="curve"/>
      <point x="196" y="1267"/>
      <point x="152" y="1317"/>
      <point x="152" y="1417" type="curve" smooth="yes"/>
      <point x="152" y="1474"/>
      <point x="201" y="1552"/>
      <point x="312" y="1552" type="curve" smooth="yes"/>
      <point x="393" y="1552"/>
      <point x="449" y="1465"/>
      <point x="449" y="1350" type="curve" smooth="yes"/>
      <point x="449" y="1175"/>
      <point x="317" y="1000"/>
    </contour>
    <contour>
      <point x="626" y="1000" type="curve"/>
      <point x="626" y="1068" type="line"/>
      <point x="713" y="1068"/>
      <point x="764" y="1160"/>
      <point x="764" y="1267" type="curve"/>
      <point x="675" y="1267"/>
      <point x="631" y="1317"/>
      <point x="631" y="1417" type="curve" smooth="yes"/>
      <point x="631" y="1471"/>
      <point x="679" y="1552"/>
      <point x="792" y="1552" type="curve" smooth="yes"/>
      <point x="875" y="1552"/>
      <point x="926" y="1466"/>
      <point x="926" y="1350" type="curve" smooth="yes"/>
      <point x="926" y="1175"/>
      <point x="797" y="1000"/>
    </contour>
  </outline>
</glyph>
<glyph name="ellipsis" format="1">
  <advance width="1642"/>
  <unicode hex="2026"/>
  <outline>
    <contour>
      <point x="268" y="-37" type="curve" smooth="yes"/>
      <point x="186" y="-37"/>
      <point x="127" y="29"/>
      <point x="127" y="117" type="curve" smooth="yes"/>
      <point x="127" y="204"/>
      <point x="178" y="271"/>
      <point x="268" y="271" type="curve" smooth="yes"/>
      <point x="350" y="271"/>
      <point x="408" y="201"/>
      <point x="408" y="117" type="curve" smooth="yes"/>
      <point x="408" y="29"/>
      <point x="356" y="-37"/>
    </contour>
    <contour>
      <point x="680" y="118" type="curve" smooth="yes"/>
      <point x="680" y="204"/>
      <point x="737" y="271"/>
      <point x="820" y="271" type="curve" smooth="yes"/>
      <point x="903" y="271"/>
      <point x="961" y="210"/>
      <point x="961" y="117" type="curve" smooth="yes"/>
      <point x="961" y="29"/>
      <point x="910" y="-37"/>
      <point x="822" y="-37" type="curve" smooth="yes"/>
      <point x="738" y="-37"/>
      <point x="680" y="34"/>
    </contour>
    <contour>
      <point x="1374" y="-37" type="curve" smooth="yes"/>
      <point x="1291" y="-37"/>
      <point x="1234" y="24"/>
      <point x="1234" y="117" type="curve" smooth="yes"/>
      <point x="1234" y="211"/>
      <point x="1285" y="271"/>
      <point x="1388" y="271" type="curve" smooth="yes"/>
      <point x="1458" y="271"/>
      <point x="1514" y="195"/>
      <point x="1514" y="117" type="curve" smooth="yes"/>
      <point x="1514" y="29"/>
      <point x="1462" y="-37"/>
    </contour>
  </outline>
</glyph>
<glyph name="guilsinglleft" format="1">
  <advance width="831"/>
  <unicode hex="2039"/>
  <outline>
    <contour>
      <point x="597" y="220" type="line"/>
      <point x="122" y="644" type="line"/>
      <point x="122" y="742" type="line"/>
      <point x="597" y="1166" type="line"/>
      <point x="692" y="1053" type="line"/>
      <point x="271" y="693" type="line"/>
      <point x="692" y="333" type="line"/>
    </contour>
  </outline>
</glyph>
<glyph name="guilsinglright" format="1">
  <advance width="834"/>
  <unicode hex="203A"/>
  <outline>
    <contour>
      <point x="141" y="1053" type="line"/>
      <point x="236" y="1166" type="line"/>
      <point x="711" y="742" type="line"/>
      <point x="711" y="644" type="line"/>
      <point x="236" y="220" type="line"/>
      <point x="141" y="333" type="line"/>
      <point x="562" y="693" type="line"/>
    </contour>
  </outline>
</glyph>
<glyph name="fraction" format="1">
  <advance width="992"/>
  <unicode hex="2044"/>
  <outline>
    <contour>
      <point x="105" y="0" type="line"/>
      <point x="751" y="1490" type="line"/>
      <point x="894" y="1490" type="line"/>
      <point x="245" y="0" type="line"/>
    </contour>
  </outline>
</glyph>
<glyph name="Euro" format="1">
  <advance width="1194"/>
  <unicode hex="20AC"/>
  <outline>
    <component base="C"/>
    <contour>
      <point x="1054" y="549" type="line"/>
      <point x="140" y="549" type="line"/>
      <point x="140" y="650" type="line"/>
      <point x="1054" y="650" type="line"/>
    </contour>
    <contour>
      <point x="1054" y="928" type="line"/>
      <point x="1054" y="823" type="line"/>
      <point x="140" y="823" type="line"/>
      <point x="140" y="927" type="line"/>
    </contour>
  </outline>
</glyph>
<glyph name="trademark" format="1">
  <advance width="1173"/>
  <unicode hex="2122"/>
  <outline>
    <contour>
      <point x="342" y="1448" type="line"/>
      <point x="342" y="990" type="line"/>
      <point x="240" y="990" type="line"/>
      <point x="240" y="1448" type="line"/>
      <point x="118" y="1448" type="line"/>
      <point x="118" y="1521" type="line"/>
      <point x="464" y="1521" type="line"/>
      <point x="464" y="1448" type="line"/>
    </contour>
    <contour>
      <point x="636" y="1346" type="line"/>
      <point x="636" y="990" type="line"/>
      <point x="550" y="990" type="line"/>
      <point x="550" y="1521" type="line"/>
      <point x="669" y="1521" type="line"/>
      <point x="793" y="1132" type="line"/>
      <point x="909" y="1521" type="line"/>
      <point x="1028" y="1521" type="line"/>
      <point x="1028" y="990" type="line"/>
      <point x="932" y="990" type="line"/>
      <point x="932" y="1346" type="line"/>
      <point x="825" y="990" type="line"/>
      <point x="741" y="990" type="line"/>
    </contour>
  </outline>
</glyph>
<glyph name="uniFB02" format="1">
  <advance width="1247"/>
  <unicode hex="FB02"/>
  <outline>
    <contour>
      <point x="1086" y="1482" type="curve"/>
      <point x="1086" y="0" type="line"/>
      <point x="889" y="0" type="line"/>
      <point x="889" y="1372" type="line"/>
      <point x="825" y="1379"/>
      <point x="661" y="1394"/>
      <point x="577" y="1394" type="curve" smooth="yes"/>
      <point x="505" y="1394"/>
      <point x="463" y="1360"/>
      <point x="463" y="1235" type="curve" smooth="yes"/>
      <point x="463" y="1200"/>
      <point x="464" y="1155"/>
      <point x="464" y="1097" type="curve"/>
      <point x="662" y="1097" type="line"/>
      <point x="662" y="984" type="line"/>
      <point x="464" y="984" type="line"/>
      <point x="464" y="0" type="line"/>
      <point x="267" y="0" type="line"/>
      <point x="267" y="984" type="line"/>
      <point x="138" y="984" type="line"/>
      <point x="138" y="1097" type="line"/>
      <point x="267" y="1097" type="line"/>
      <point x="267" y="1416"/>
      <point x="276" y="1522"/>
      <point x="568" y="1522" type="curve" smooth="yes"/>
      <point x="724" y="1522"/>
      <point x="883" y="1506"/>
    </contour>
  </outline>
</glyph>
